<?xml version="1.0" standalone="no"?>
<!DOCTYPE svg PUBLIC "-//W3C//DTD SVG 20010904//EN"
 "http://www.w3.org/TR/2001/REC-SVG-20010904/DTD/svg10.dtd">
<svg version="1.0" xmlns="http://www.w3.org/2000/svg"
 width="512.000000pt" height="512.000000pt" viewBox="0 0 512.000000 512.000000"
 preserveAspectRatio="xMidYMid meet">
<metadata>
Created by potrace 1.16, written by Peter Selinger 2001-2019
</metadata>
<g transform="translate(0.000000,512.000000) scale(0.100000,-0.100000)"
fill="#000000" stroke="none">
<path d="M2260 4216 c-164 -134 -486 -393 -497 -400 -10 -5 -13 8 -13 53 0 54
2 61 20 61 13 0 20 7 20 20 0 19 -7 20 -125 20 -118 0 -125 -1 -125 -20 0 -11
7 -20 15 -20 13 0 15 -22 15 -134 l0 -134 -42 -33 c-119 -92 -458 -373 -458
-379 0 -4 17 -27 38 -51 38 -42 40 -43 95 -40 l57 2 0 -428 0 -429 -27 -11
c-16 -6 -80 -35 -143 -64 -63 -29 -116 -54 -117 -54 -2 -1 9 -29 24 -63 l28
-62 117 6 118 7 0 -164 0 -164 -45 3 c-44 4 -48 2 -93 -45 -94 -99 -104 -113
-97 -142 3 -14 7 -39 9 -56 2 -16 6 -38 11 -48 6 -14 2 -17 -23 -17 -17 0 -38
-7 -46 -16 -18 -17 -21 -59 -7 -69 5 -3 7 -20 4 -39 -4 -29 -1 -37 32 -63 22
-19 33 -33 26 -37 -17 -11 -13 -38 11 -63 l21 -23 -25 0 c-42 0 -58 -29 -58
-101 0 -66 25 -127 52 -131 31 -4 -149 -16 -272 -18 -74 -1 -164 -5 -200 -9
l-65 -7 110 -9 c146 -13 3822 -13 3930 -1 l80 10 -55 7 c-30 3 -223 10 -428
14 -355 8 -372 9 -356 26 11 12 38 19 92 24 111 9 161 24 203 63 95 85 69 189
-53 214 -68 14 -74 30 -20 57 50 26 74 54 81 98 5 30 12 38 35 44 31 9 66 36
66 53 0 5 11 21 24 35 16 17 28 47 35 85 9 51 9 63 -6 85 -13 19 -16 43 -14
92 3 62 1 69 -30 103 -18 21 -40 52 -49 69 -21 39 -126 97 -175 97 -88 0 -229
-67 -262 -124 -10 -17 -12 13 -10 159 l2 180 26 3 c14 2 43 20 63 41 l37 38
-66 61 -65 61 0 431 c0 236 3 430 6 430 16 0 56 -30 118 -87 l70 -64 50 51 51
51 -50 45 c-27 25 -144 127 -260 227 -115 100 -330 287 -477 415 -244 212
-271 233 -287 220 -10 -7 -232 -191 -492 -409 -261 -217 -488 -406 -506 -418
-17 -13 -29 -29 -27 -36 3 -8 -11 -14 -42 -19 -59 -8 -519 -8 -527 0 -10 10
315 298 698 619 275 230 358 306 346 318 -11 11 0 19 -405 -311 -271 -221
-674 -549 -764 -620 -29 -24 -56 -42 -58 -39 -4 4 228 197 501 417 65 52 193
156 284 230 356 290 419 340 426 340 3 0 45 -27 92 -60 85 -59 87 -60 155 -60
39 0 68 4 68 10 0 6 -28 10 -63 10 -59 0 -65 3 -112 42 -59 48 -134 98 -149
98 -6 0 -40 -24 -76 -54z m930 -357 c129 -113 316 -275 416 -362 171 -147 213
-187 201 -187 -12 0 -341 282 -797 682 l-85 75 -300 -250 c-165 -137 -376
-313 -468 -390 -168 -142 -217 -179 -188 -143 16 19 298 258 691 585 225 187
267 218 280 207 8 -7 121 -105 250 -217z m126 -209 l319 -284 6 -156 c4 -85 7
-536 8 -1002 l1 -848 -470 0 -470 0 0 488 0 489 29 39 c15 21 38 48 50 58 18
16 21 29 19 85 -1 41 -3 52 -5 29 l-4 -38 -360 0 -359 0 0 -23 c0 -20 8 -25
53 -35 28 -7 93 -12 143 -12 l91 1 6 -137 c4 -75 7 -226 7 -334 l0 -197 -31
-7 c-17 -3 -41 -6 -53 -6 -21 0 -21 -3 -18 -160 l3 -160 -31 0 -31 0 3 375 3
375 -170 0 -170 0 3 -375 2 -375 -30 0 -30 0 0 154 c0 139 2 155 18 158 9 3
-22 8 -70 12 -48 4 -92 5 -97 1 -6 -3 -26 -3 -46 1 l-35 6 0 129 0 129 -85 0
-85 0 0 -160 0 -160 65 0 65 0 -1 48 c-1 26 -4 37 -6 24 -4 -18 -11 -22 -39
-22 l-34 0 0 105 0 105 40 0 40 0 0 -82 c0 -57 3 -78 10 -68 7 10 10 -9 10
-62 l0 -78 -75 0 c-62 0 -75 -3 -75 -16 0 -14 11 -16 75 -12 l76 3 -3 -120 -3
-120 -127 -3 -128 -3 0 356 0 355 -130 0 c-158 0 -165 9 -47 64 186 86 885
399 927 415 38 15 66 17 180 12 174 -8 340 -3 340 9 0 6 -78 10 -200 10 l-200
0 0 125 0 125 75 0 75 0 2 -122 2 -123 3 123 c3 99 6 122 18 122 17 0 19 -12
15 -142 -1 -67 1 -98 9 -98 7 0 11 39 11 120 0 113 1 120 20 120 19 0 20 -7
20 -120 0 -100 3 -120 15 -120 12 0 15 21 17 123 l2 122 3 -122 4 -123 49 0
50 0 2 123 2 122 6 -120 c4 -66 8 -121 9 -122 0 -2 26 -3 56 -3 l55 0 2 123 2
122 3 -122 c5 -161 23 -163 23 -3 0 116 1 120 22 120 12 0 18 3 15 7 -4 3 -37
5 -74 4 -38 -1 -169 1 -293 5 l-225 7 5 242 c4 195 8 246 20 260 8 10 96 85
195 168 99 82 231 192 293 245 68 57 124 97 139 98 41 5 49 10 67 48 l17 37
39 -33 c21 -18 181 -161 356 -318z m-1158 -632 c2 -101 0 -118 -13 -118 -8 0
-15 -4 -15 -10 0 -5 7 -10 15 -10 13 0 15 -20 15 -120 l0 -120 -25 0 -25 0 0
215 0 215 -105 0 -105 0 0 -239 0 -239 -147 -65 c-82 -36 -212 -95 -290 -131
l-143 -65 0 398 c0 219 2 400 6 403 3 3 190 5 417 4 l412 -1 3 -117z m-98 -93
l0 -85 -55 0 -55 0 0 85 0 85 55 0 55 0 0 -85z m580 -960 l0 -195 -105 0 -105
0 0 195 0 195 105 0 105 0 0 -195z m-532 98 c-26 -2 -71 -2 -100 0 -29 2 -8 3
47 3 55 0 79 -1 53 -3z m1941 -103 c38 -19 81 -63 81 -82 0 -5 14 -24 31 -41
28 -28 31 -35 26 -81 -3 -31 -11 -54 -22 -62 -15 -11 -14 -14 15 -29 32 -16
32 -18 27 -70 -6 -59 -50 -130 -94 -154 -28 -14 -134 -18 -172 -6 -20 6 -22
11 -16 43 19 109 65 186 133 222 l37 19 -32 1 c-24 0 -33 5 -33 17 0 12 -12 5
-43 -25 l-44 -43 -16 60 c-27 95 -105 164 -168 148 -11 -3 -19 0 -18 6 0 19
79 77 103 77 11 0 28 5 36 10 27 17 128 12 169 -10z m-2089 -201 c0 -21 -16
-26 -23 -6 -6 17 3 38 14 31 5 -3 9 -14 9 -25z m-250 -47 c0 -38 -69 -235 -89
-255 -8 -8 -11 32 -11 141 l0 152 50 0 50 0 0 -38z m47 -89 c-3 -79 -11 -143
-20 -168 l-16 -40 0 46 c-1 25 2 101 6 167 5 98 9 122 21 122 12 0 14 -19 9
-127z m53 -29 c0 -119 -3 -155 -12 -152 -9 3 -29 -43 -59 -136 -26 -78 -66
-190 -89 -251 -23 -60 -44 -125 -47 -143 -3 -19 -10 -31 -17 -29 -18 6 -9 38
92 327 l96 275 4 133 c3 105 7 132 18 132 11 0 14 -29 14 -156z m539 -9 c0
-111 -5 -183 -15 -220 -7 -31 -14 -75 -15 -98 l-1 -42 -9 35 c-5 23 -3 65 7
125 9 50 18 108 20 130 4 38 3 38 -15 -15 l-19 -55 -1 153 -1 152 25 0 24 0 0
-165z m201 1 c0 -185 5 -176 -82 -167 l-38 3 0 159 0 159 -25 0 -25 0 0 -144
c0 -150 -8 -239 -20 -231 -4 3 -4 24 1 47 4 24 8 109 9 191 l0 147 90 0 90 0
0 -164z m90 -1 l0 -165 -35 0 -35 0 0 165 0 165 35 0 35 0 0 -165z m-1402 119
c12 -4 22 -9 22 -13 0 -4 -22 -20 -50 -36 -27 -17 -50 -33 -50 -37 0 -4 -14
-23 -31 -43 -24 -27 -29 -39 -20 -48 17 -17 13 -27 -9 -27 -26 0 -54 43 -45
70 4 11 17 28 31 36 13 9 24 22 24 29 0 18 67 75 88 75 9 0 27 -3 40 -6z
m2561 -10 c23 -16 51 -71 51 -96 -1 -7 -9 3 -19 22 -11 20 -31 48 -46 63 -31
30 -22 36 14 11z m-7 -73 c25 -28 54 -67 63 -88 25 -51 31 -180 12 -263 l-15
-65 -1 110 c-1 114 -10 167 -35 200 -23 31 -27 14 -10 -40 10 -32 16 -90 17
-159 l1 -108 -50 -44 c-27 -24 -52 -43 -55 -44 -4 0 -9 33 -11 73 -3 39 -14
99 -24 131 -14 45 -16 60 -6 64 9 3 12 44 12 158 l0 155 29 -15 c15 -8 49 -38
73 -65z m-2081 -211 c5 -37 -5 -51 -10 -15 -6 36 -8 33 -18 -45 -6 -47 -18
-107 -26 -135 l-15 -50 -1 68 c-1 38 3 66 8 63 9 -6 23 95 25 182 0 28 5 52 9
52 4 0 7 6 6 13 -1 6 0 21 1 32 2 11 7 -18 11 -65 4 -47 9 -92 10 -100z m-60
29 c-10 -35 -33 -104 -51 -154 -31 -84 -34 -99 -35 -220 -1 -109 -4 -135 -19
-158 -10 -15 -20 -26 -21 -25 -7 9 9 77 16 72 5 -3 6 45 3 113 l-6 118 55 145
c69 183 69 182 73 177 2 -2 -5 -32 -15 -68z m-463 24 c15 -3 19 -8 12 -13 -8
-5 -4 -18 14 -45 14 -21 26 -33 26 -26 0 8 47 11 161 11 l160 0 -3 -22 c-3
-23 -5 -23 -161 -23 -144 0 -173 -4 -148 -20 15 -8 21 -72 26 -267 l5 -178
-83 0 c-81 0 -82 0 -129 41 -53 45 -65 86 -27 96 20 6 20 6 -2 29 -27 29 -20
39 34 40 23 1 53 5 67 8 36 10 87 -26 111 -77 l20 -42 -7 75 c-10 119 -62 259
-105 286 -8 4 -9 3 -5 -5 6 -9 0 -10 -21 -5 -25 6 -23 3 17 -27 l45 -34 -74
-8 c-62 -7 -76 -6 -92 9 -10 9 -18 26 -18 38 1 11 -2 36 -6 53 -10 43 13 52
72 31 l43 -16 0 37 c0 54 18 68 68 54z m1112 -52 c0 -5 -4 -21 -10 -35 l-10
-26 -240 0 -240 0 0 35 0 35 250 0 c148 0 250 -4 250 -9z m390 -41 c0 -19 -7
-20 -155 -20 -122 0 -155 3 -155 13 0 8 3 17 7 20 3 4 73 7 155 7 141 0 148
-1 148 -20z m-343 -47 c-3 -10 -5 -4 -5 12 0 17 2 24 5 18 2 -7 2 -21 0 -30z
m-59 -15 c-4 -10 -65 -14 -251 -16 -215 -2 -247 0 -247 13 0 13 33 15 251 15
196 0 250 -3 247 -12z m302 -208 l0 -220 -37 -1 c-21 0 -98 -2 -170 -5 l-133
-6 0 36 c0 19 4 37 9 40 4 3 11 25 14 48 3 23 25 106 49 185 l43 143 112 0
113 0 0 -220z m-1220 -6 l0 -215 -27 3 -28 3 -3 213 -2 212 30 0 30 0 0 -216z
m2230 1 l0 -215 -85 0 c-81 0 -85 1 -85 23 -1 12 -3 109 -6 215 l-6 192 91 0
91 0 0 -215z m330 176 c0 -30 -11 -51 -26 -51 -15 0 -17 12 -8 48 8 27 34 30
34 3z m-2317 -156 l-18 -110 -3 75 c-2 52 2 94 15 135 26 87 29 37 6 -100z
m667 119 l0 -24 -260 0 c-151 0 -260 4 -260 9 0 42 1 42 266 40 l254 -1 0 -24z
m810 -59 l0 -85 -65 0 -65 0 0 85 0 85 65 0 65 0 0 -85z m180 0 l0 -85 -70 0
-70 0 0 85 0 85 70 0 70 0 0 -85z m-990 -10 c0 -13 -37 -15 -270 -15 -246 0
-283 3 -263 23 3 4 125 7 270 7 227 0 263 -2 263 -15z m1740 5 c62 -18 69 -27
38 -54 -15 -13 -33 -26 -40 -29 -11 -4 -11 -7 0 -15 7 -5 10 -16 6 -25 -10
-28 -93 -76 -143 -82 -40 -6 -123 -29 -173 -50 -15 -6 -16 -3 -8 22 6 15 17
54 25 85 18 68 55 114 110 139 44 21 130 25 185 9z m-1768 -75 l-4 -25 -264 0
-264 0 0 25 0 25 269 0 268 0 -5 -25z m-12 -95 l0 -30 -285 0 c-157 0 -285 3
-285 8 0 4 3 17 6 30 l6 22 279 0 279 0 0 -30z m-25 -95 l0 -30 -287 -3 -288
-2 0 28 c0 16 3 32 7 35 4 4 133 6 287 5 l281 -3 0 -30z"/>
<path d="M2896 3777 c-37 -27 -8 -107 39 -107 24 0 65 41 65 65 0 44 -65 70
-104 42z"/>
<path d="M2428 3095 l3 -185 134 0 135 0 0 169 c0 93 3 176 6 185 5 14 -11 16
-137 16 l-144 0 3 -185z m175 -2 c-24 -2 -62 -2 -85 0 -24 2 -5 4 42 4 47 0
66 -2 43 -4z"/>
<path d="M3170 3080 l0 -200 115 0 114 0 3 200 3 200 -117 0 -118 0 0 -200z
m190 108 c0 -18 -3 -50 -6 -70 l-7 -38 -68 0 -67 0 1 70 2 70 73 0 72 0 0 -32z"/>
<path d="M2800 3120 l0 -150 80 0 80 0 0 150 0 150 -80 0 -80 0 0 -150z m103
103 c-13 -2 -33 -2 -45 0 -13 2 -3 4 22 4 25 0 35 -2 23 -4z m17 -113 l0 -100
-40 0 -40 0 0 84 c0 107 4 116 46 116 l34 0 0 -100z"/>
<path d="M3168 2843 c-40 -4 -49 -16 -22 -27 9 -3 76 -6 149 -6 141 0 165 4
165 26 0 11 -24 14 -127 12 -71 -1 -145 -3 -165 -5z"/>
<path d="M2214 2735 c-1 -52 3 -95 7 -95 5 0 9 43 9 95 0 52 -3 95 -7 95 -5 0
-9 -43 -9 -95z"/>
<path d="M2600 2620 c0 -6 37 -10 93 -10 63 0 87 3 77 10 -20 13 -170 13 -170
0z"/>
<path d="M2132 2578 c9 -25 648 -21 648 3 0 5 -139 9 -326 9 -256 0 -325 -3
-322 -12z"/>
<path d="M2960 2306 c0 -9 12 -16 28 -18 l27 -3 3 -202 2 -203 150 0 150 0 2
178 c1 173 2 175 8 67 4 -60 8 -140 9 -177 1 -53 4 -68 16 -68 12 0 15 32 17
203 l3 202 33 3 c20 2 32 9 32 18 0 12 -38 14 -240 14 -202 0 -240 -2 -240
-14z"/>
<path d="M2910 1853 c0 -7 6 -12 13 -10 9 1 12 -18 12 -71 0 -39 3 -72 8 -72
4 0 7 34 7 75 l0 75 30 0 30 0 0 -70 c0 -55 3 -70 15 -70 11 0 15 17 18 73 l3
72 2 -72 2 -73 45 0 44 0 4 63 3 62 2 -62 2 -63 40 0 39 0 4 73 3 72 2 -72 2
-73 40 0 39 0 4 73 3 72 2 -72 c2 -66 4 -73 22 -73 18 0 20 7 20 70 l0 70 30
0 30 0 0 -70 c0 -40 4 -70 10 -70 6 0 10 30 10 70 0 56 3 70 15 70 8 0 15 3
15 8 0 4 -128 7 -285 7 -221 0 -285 -3 -285 -12z"/>
<path d="M3460 1695 c0 -13 -37 -15 -269 -15 -206 0 -271 3 -274 13 -3 6 -6 2
-6 -10 -1 -21 4 -23 44 -23 43 0 45 -1 45 -30 l0 -30 185 0 185 0 0 30 c0 29
1 30 50 30 47 0 50 2 50 25 0 14 -2 25 -5 25 -3 0 -5 -7 -5 -15z"/>
<path d="M1440 2835 l0 -225 120 0 120 0 0 173 c0 94 3 196 6 225 l7 52 -127
0 -126 0 0 -225z m200 70 l0 -75 -75 0 -75 0 0 75 0 75 75 0 75 0 0 -75z"/>
<path d="M1420 2565 c0 -13 23 -15 145 -15 122 0 145 2 145 15 0 13 -23 15
-145 15 -122 0 -145 -2 -145 -15z"/>
<path d="M2260 3900 l0 -50 50 0 50 0 0 50 0 50 -50 0 -50 0 0 -50z"/>
<path d="M1120 3630 c0 -6 42 -10 106 -10 67 0 103 4 99 10 -3 6 -50 10 -106
10 -59 0 -99 -4 -99 -10z"/>
<path d="M1057 2800 c-14 -11 -36 -20 -49 -20 -12 0 -34 -9 -48 -20 l-25 -20
135 0 135 1 -42 39 c-47 45 -69 49 -106 20z"/>
<path d="M3989 2784 c-12 -15 -10 -16 19 -9 21 4 38 2 48 -6 19 -16 30 -4 14
16 -16 20 -64 19 -81 -1z"/>
<path d="M3794 2726 c-17 -13 4 -15 184 -18 195 -3 202 -2 181 15 -18 15 -44
17 -183 17 -126 0 -167 -3 -182 -14z"/>
</g>
</svg>